<svg xmlns="http://www.w3.org/2000/svg" xmlns:xlink="http://www.w3.org/1999/xlink" viewBox="0 0 42.94 43.14"><defs><style>.cls-1,.cls-4{fill:#fff;}.cls-2{fill:url(#Degradado_sin_nombre_4);}.cls-3{fill:url(#Degradado_sin_nombre_2);}.cls-4{fill-rule:evenodd;}</style><linearGradient id="Degradado_sin_nombre_4" x1="-417.39" y1="514.16" x2="-416.39" y2="514.16" gradientTransform="matrix(0, -41.64, -41.64, 0, 21431.9, -17338.65)" gradientUnits="userSpaceOnUse"><stop offset="0" stop-color="#20b038"/><stop offset="1" stop-color="#60d66a"/></linearGradient><linearGradient id="Degradado_sin_nombre_2" x1="-417" y1="514.49" x2="-416" y2="514.49" gradientTransform="matrix(0, -43.13, -43.13, 0, 22213.7, -17944.09)" gradientUnits="userSpaceOnUse"><stop offset="0" stop-color="#f9f9f9"/><stop offset="1" stop-color="#fff"/></linearGradient></defs><title>whatsapp_icon</title><g id="Capa_2" data-name="Capa 2"><g id="Capa_1-2" data-name="Capa 1"><path class="cls-1" d="M11.86,36.29l.65.39a17.7,17.7,0,0,0,9,2.47h0a17.77,17.77,0,1,0-15-8.32l.42.67-1.8,6.56ZM0,43.13,3,32.06a21.39,21.39,0,1,1,18.53,10.7h0a21.23,21.23,0,0,1-10.21-2.6Z"/><path class="cls-2" d="M.92,21.38A20.68,20.68,0,0,0,3.67,31.7L.74,42.39l11-2.87A20.5,20.5,0,0,0,21.55,42h0A20.64,20.64,0,1,0,.92,21.38M21.56,42h0"/><path class="cls-3" d="M.18,21.38A21.35,21.35,0,0,0,3,32.06L0,43.14l11.33-3a21.41,21.41,0,0,0,10.22,2.6h0A21.39,21.39,0,1,0,.18,21.38M6.93,31.51l-.42-.68a17.77,17.77,0,1,1,15.05,8.33h0a17.71,17.71,0,0,1-9-2.48l-.65-.38L5.13,38.06ZM21.56,42.77h0"/><path class="cls-4" d="M16.22,12.44c-.4-.89-.82-.91-1.2-.92H14a2,2,0,0,0-1.42.66,6,6,0,0,0-1.87,4.46,10.31,10.31,0,0,0,2.18,5.52c.27.36,3.69,5.93,9.12,8.07,4.52,1.78,5.44,1.42,6.41,1.34S31.58,30.26,32,29a4.35,4.35,0,0,0,.31-2.54c-.13-.23-.49-.36-1-.63s-3.16-1.56-3.65-1.74-.85-.26-1.2.27-1.38,1.74-1.7,2.1-.62.4-1.15.13A14.55,14.55,0,0,1,19.31,24a16.15,16.15,0,0,1-3-3.7c-.31-.53,0-.82.23-1.09s.54-.62.8-.94a3.53,3.53,0,0,0,.54-.89,1,1,0,0,0-.05-.93c-.13-.27-1.17-2.91-1.64-4"/></g></g></svg>